<svg width="83" height="91" viewBox="0 0 83 91" fill="none" xmlns="http://www.w3.org/2000/svg">
<path fill-rule="evenodd" clip-rule="evenodd" d="M27.1914 2.51597e-05H60.3901C63.0384 0.00198828 65.5776 1.039 67.4495 2.88314C69.3215 4.72728 70.373 7.22763 70.373 9.83466V29.5113H66.92V9.73839H20.6464V13.0709H17.2009V9.81985C17.1999 8.52877 17.4578 7.25019 17.9597 6.05738C18.4616 4.86458 19.1977 3.78101 20.1258 2.86876C21.0539 1.95652 22.1557 1.23354 23.3682 0.74127C24.5806 0.248995 25.8798 -0.00289841 27.1914 2.51597e-05ZM15.9972 29.6817L22.8582 34.3916C22.9823 34.4658 23.0898 34.564 23.1741 34.6804C23.2513 34.7896 23.3057 34.9128 23.3342 35.0428C23.3628 35.1729 23.3649 35.3072 23.3404 35.438C23.3159 35.5688 23.2653 35.6936 23.1916 35.805C23.1179 35.9165 23.0225 36.0125 22.9108 36.0875L16.065 40.7308C15.8787 40.8759 15.6479 40.9542 15.4105 40.953C15.146 40.9533 14.8915 40.8536 14.6997 40.6744C14.5079 40.4952 14.3933 40.2502 14.3798 39.9903V30.5037C14.3862 30.2964 14.4542 30.0956 14.5754 29.926C14.7315 29.7086 14.9686 29.5608 15.2351 29.515C15.5015 29.4692 15.7756 29.5291 15.9972 29.6817ZM4.26147 19.0102H33.5182C34.5049 19.0143 35.4506 19.3999 36.1512 20.084L36.2189 20.1581C36.8809 20.8372 37.2502 21.7422 37.2495 22.6834V43.5746C37.2495 44.5566 36.8532 45.4984 36.1478 46.1928C35.4424 46.8872 34.4857 47.2774 33.4881 47.2774H4.26147C3.26386 47.2774 2.30712 46.8872 1.60171 46.1928C0.896296 45.4984 0.5 44.5566 0.5 43.5746L0.5 22.6834C0.5 21.7013 0.896296 20.7595 1.60171 20.0651C2.30712 19.3707 3.26386 18.9806 4.26147 18.9806V19.0102ZM35.271 25.2383H2.5011V43.5746C2.50208 43.8008 2.54845 44.0246 2.63754 44.2332C2.72664 44.4418 2.8567 44.631 3.02027 44.7899C3.18383 44.9489 3.37768 45.0744 3.59068 45.1595C3.80368 45.2445 4.03164 45.2872 4.26147 45.2853H33.5182C33.7463 45.2862 33.9724 45.2426 34.1832 45.1569C34.3941 45.0712 34.5856 44.9451 34.7466 44.786C34.9075 44.6268 35.0348 44.4378 35.1209 44.2298C35.2071 44.0219 35.2504 43.7991 35.2484 43.5746V25.2383H35.271ZM63.1059 64.488L55.8914 71.2937C55.7859 71.4134 55.6552 71.5092 55.5084 71.5744C55.3617 71.6396 55.2023 71.6727 55.0413 71.6714C54.7393 71.6675 54.4512 71.5462 54.2398 71.3339C54.0284 71.1216 53.9108 70.8356 53.9128 70.5383V64.4806H50.0912C49.3136 64.4787 48.568 64.1752 48.016 63.636C47.4641 63.0968 47.1501 62.3652 47.1422 61.5998V39.5015C47.15 38.7398 47.4609 38.0116 48.008 37.473C48.5551 36.9344 49.2949 36.6284 50.0686 36.6207H79.5134C79.9022 36.6148 80.2883 36.6849 80.6494 36.8268C81.0106 36.9688 81.3395 37.1798 81.6172 37.4477C81.895 37.7156 82.116 38.0351 82.2675 38.3876C82.419 38.7401 82.4981 39.1187 82.5 39.5015V61.5998C82.496 62.3626 82.1865 63.0931 81.6385 63.6325C81.0905 64.1719 80.3485 64.4767 79.5736 64.4806L63.1059 64.488ZM55.4927 55.6012C55.0936 55.6012 54.7109 55.4452 54.4288 55.1674C54.1466 54.8897 53.9881 54.5129 53.9881 54.1201C53.9881 53.7273 54.1466 53.3506 54.4288 53.0728C54.7109 52.7951 55.0936 52.639 55.4927 52.639H71.2908C71.6899 52.639 72.0726 52.7951 72.3547 53.0728C72.6369 53.3506 72.7954 53.7273 72.7954 54.1201C72.7954 54.5129 72.6369 54.8897 72.3547 55.1674C72.0726 55.4452 71.6899 55.6012 71.2908 55.6012H55.4927ZM55.4927 47.7291C55.0936 47.7291 54.7109 47.5731 54.4288 47.2953C54.1466 47.0175 53.9881 46.6408 53.9881 46.248C53.9881 45.8552 54.1466 45.4784 54.4288 45.2007C54.7109 44.9229 55.0936 44.7669 55.4927 44.7669H74.8492C75.2482 44.7669 75.6309 44.9229 75.9131 45.2007C76.1952 45.4784 76.3538 45.8552 76.3538 46.248C76.3538 46.6408 76.1952 47.0175 75.9131 47.2953C75.6309 47.5731 75.2482 47.7291 74.8492 47.7291H55.4927ZM70.3655 70.6864V81.1654C70.3655 83.7724 69.314 86.2728 67.442 88.1169C65.5701 89.961 63.0309 90.998 60.3826 91H27.1914C24.5417 91 22.0006 89.9639 20.1271 88.1195C18.2535 86.2752 17.2009 83.7737 17.2009 81.1654V53.1944H20.6464V77.3441H66.92V70.679L70.3655 70.6864ZM43.7719 80.4248C44.5846 80.4248 45.3791 80.6621 46.0547 81.1068C46.7304 81.5514 47.2568 82.1833 47.5675 82.9226C47.8782 83.6619 47.9591 84.4753 47.8 85.2598C47.6409 86.0444 47.2489 86.7649 46.6737 87.33C46.0985 87.8952 45.3659 88.2798 44.5686 88.4349C43.7714 88.5901 42.9452 88.509 42.1948 88.2018C41.4444 87.8946 40.8034 87.3752 40.353 86.7093C39.9026 86.0434 39.6629 85.2609 39.6644 84.4609C39.6634 83.9299 39.769 83.4041 39.9752 82.9135C40.1814 82.4229 40.484 81.9772 40.8657 81.6021C41.2474 81.2271 41.7007 80.93 42.1994 80.7279C42.6982 80.5259 43.2326 80.4229 43.7719 80.4248Z" fill="#7A1AAE"/>
</svg>
