<svg width="91" height="73" viewBox="0 0 91 73" fill="none" xmlns="http://www.w3.org/2000/svg">
<path fill-rule="evenodd" clip-rule="evenodd" d="M36.369 26.1131C41.701 29.9487 50.2471 25.8306 53.6092 32.5057C54.4979 34.2748 54.6905 36.6981 53.8906 38.6233C53.5648 39.3963 53.0908 40.0876 52.4391 40.6154C52.1503 40.8458 51.8319 41.054 51.4764 41.2324C47.0923 43.4177 42.5156 40.3627 40.094 36.6683C37.8649 33.2639 36.8948 29.0195 36.369 26.1131ZM74.0635 0H5.37648C2.42164 0 0 2.43068 0 5.39656V63.2125C0 66.1784 2.42164 68.6091 5.37648 68.6091H58.9635L54.3202 64.6397H5.2728C4.85808 64.6397 4.49521 64.4836 4.2212 64.2012C3.94719 63.9261 3.78427 63.5545 3.78427 63.1456V15.1118H3.76205H75.441V37.1664L79.44 40.4221V5.39656C79.44 2.43068 77.0184 0 74.0635 0ZM10.4938 6.06555C9.02744 6.06555 7.83514 7.26231 7.83514 8.73409C7.83514 10.2059 9.02744 11.3952 10.4938 11.3952C11.9601 11.3952 13.1524 10.1984 13.1524 8.73409C13.1524 7.26231 11.9601 6.06555 10.4938 6.06555ZM28.4968 6.06555C27.0305 6.06555 25.8382 7.26231 25.8382 8.73409C25.8382 10.2059 27.0231 11.3952 28.4968 11.3952C29.9631 11.3952 31.1554 10.1984 31.1554 8.73409C31.1554 7.26231 29.9631 6.06555 28.4968 6.06555ZM19.499 6.06555C18.0327 6.06555 16.8404 7.26231 16.8404 8.73409C16.8404 10.2059 18.0327 11.3952 19.499 11.3952C20.9653 11.3952 22.1576 10.1984 22.1576 8.73409C22.1502 7.26231 20.9653 6.06555 19.499 6.06555ZM63.4143 55.4076C66.3839 53.029 68.6871 50.2861 70.2571 47.1418L89.3635 67.3677C90.8076 68.7355 91.6222 69.9025 90.4151 71.9987C89.8153 72.6156 89.1784 72.9501 88.5045 72.9947C87.838 73.0393 87.1344 72.8015 86.4013 72.2663L63.4143 55.4076ZM53.3352 43.6705C54.6238 42.9792 56.3863 41.2695 56.8085 39.4038L68.7685 45.9897C67.043 49.4387 64.8436 52.3897 61.8295 54.4859C58.6821 50.2489 56.9195 47.6919 53.3352 43.6705Z" fill="#7A1AAE"/>
</svg>
