<svg width="100" height="91" viewBox="0 0 100 91" fill="none" xmlns="http://www.w3.org/2000/svg">
<path fill-rule="evenodd" clip-rule="evenodd" d="M50 0C56.4729 0 62.3376 2.62634 66.5831 6.86993C70.8267 11.1135 73.4531 16.9782 73.4531 23.4531C73.4531 29.926 70.8267 35.7907 66.5831 40.0362C62.3376 44.2798 56.4729 46.9061 50 46.9061C43.5232 46.9061 37.6605 44.2798 33.4169 40.0362C29.1713 35.7907 26.5469 29.926 26.5469 23.4531C26.5469 16.9782 29.1713 11.1135 33.4169 6.86993C37.6605 2.62634 43.5232 0 50 0ZM71.7409 40.9852L77.0633 46.5982C79.281 45.2947 81.8647 44.549 84.6228 44.549C88.7463 44.549 92.4863 46.2244 95.1959 48.9301L95.2037 48.9398C97.9094 51.6475 99.5828 55.3856 99.5828 59.5091C99.5828 63.6403 97.9075 67.3804 95.1998 70.0881L95.1243 70.1578C92.4204 72.8229 88.7114 74.4692 84.6228 74.4692C80.4915 74.4692 76.7515 72.7938 74.0438 70.0881L73.9741 70.0106C71.309 67.3068 69.6627 63.5977 69.6627 59.5091C69.6627 55.3953 71.3284 51.6649 74.0225 48.9572L69.132 43.8014C70.0664 42.9248 70.9382 41.9838 71.7409 40.9852ZM31.3754 44.2682L25.9639 51.7889C28.6658 54.4946 30.3354 58.2269 30.3354 62.3504C30.3354 66.4817 28.66 70.2217 25.9543 72.9274L25.8768 72.9991C23.1768 75.6622 19.4659 77.3085 15.3753 77.3085C11.246 77.3085 7.50402 75.6332 4.79827 72.9274L4.72854 72.8519C2.06347 70.15 0.41716 66.441 0.41716 62.3504C0.41716 58.2192 2.09252 54.4791 4.79827 51.7734C7.50402 49.0676 11.246 47.3923 15.3753 47.3923C18.1333 47.3923 20.7171 48.1399 22.9367 49.4434L28.6678 41.4811C29.1713 42.0776 29.6982 42.6529 30.2482 43.2029C30.6143 43.567 30.99 43.9234 31.3754 44.2682ZM51.9194 51.3202V61.2058C55.2798 61.6357 58.2916 63.1833 60.5712 65.4629C63.2828 68.1764 64.9581 71.9145 64.9581 76.0419C64.9581 80.1731 63.2828 83.9131 60.577 86.6189L60.5015 86.6906C57.7996 89.3537 54.0906 91 50 91C45.8687 91 42.1287 89.3246 39.423 86.6189L39.3513 86.5434C36.6882 83.8415 35.0419 80.1324 35.0419 76.0419C35.0419 71.9145 36.7153 68.1764 39.423 65.4687C41.7026 63.1852 44.7163 61.6357 48.0787 61.2058V51.3202C48.7139 51.3628 49.355 51.386 50 51.386C50.645 51.386 51.2841 51.3628 51.9194 51.3202ZM5.78024 70.3224L6.48718 69.7782C8.08313 68.833 10.4925 69.0809 12.0633 67.9847C12.1563 67.8433 12.257 67.6399 12.3538 67.4191C12.503 67.084 12.6347 66.7199 12.7199 66.4701C12.3635 66.0498 12.0575 65.5752 11.765 65.1085L10.7966 63.5706C10.4461 63.0438 10.2601 62.5615 10.2485 62.1664C10.2427 61.9805 10.2737 61.812 10.3434 61.6628C10.4151 61.506 10.5255 61.3781 10.6765 61.2774C10.7463 61.229 10.8257 61.1883 10.9109 61.1573C10.847 60.3245 10.8257 59.2747 10.8644 58.3935C10.8838 58.1862 10.9264 57.9771 10.9845 57.7679C11.2324 56.8866 11.8483 56.1758 12.6173 55.6877C13.0375 55.4185 13.5024 55.2171 13.9847 55.0796C14.2926 54.9924 13.7232 54.0104 14.0408 53.9775C15.5767 53.8187 18.0597 55.2209 19.1308 56.3811C19.6673 56.9622 20.0043 57.733 20.0779 58.7498L20.0179 61.258C20.2852 61.3394 20.4595 61.5098 20.5273 61.7849C20.6047 62.0909 20.5215 62.5209 20.2619 63.1058C20.258 63.1155 20.2522 63.1271 20.2445 63.1368L19.1444 64.9516C18.7396 65.6179 18.329 66.288 17.7925 66.8129C17.8409 66.8826 17.8912 66.9523 17.9377 67.024C18.1566 67.3436 18.3774 67.6651 18.6563 67.9498C18.666 67.9595 18.6757 67.9692 18.6815 67.9788C19.9482 68.8737 23.0355 69.0925 24.2208 69.753L24.2673 69.7801L24.9607 70.3302C26.7619 68.1667 27.8485 65.3854 27.8485 62.3504C27.8485 58.9067 26.4501 55.7865 24.1956 53.5301C21.9411 51.2756 18.8209 49.8792 15.3753 49.8792C11.9316 49.8792 8.81332 51.2756 6.55691 53.532C4.3005 55.7865 2.90405 58.9067 2.90405 62.3504C2.90405 65.3816 3.9848 68.1609 5.78024 70.3224ZM75.6107 68.1396C76.4319 66.6192 79.5521 66.4429 81.3263 65.3796C82.6879 64.5623 82.4555 63.7411 82.4477 62.3872H80.2862C74.6733 62.3872 78.3687 62.8288 79.1319 56.7278C80.2746 48.1108 88.9535 48.1031 90.2338 56.7278C91.055 62.5983 94.5742 62.3872 89.0794 62.3872H86.8869C86.8772 63.8805 86.6448 64.6456 88.1962 65.4842C89.5229 66.2047 92.7943 66.6231 93.6929 68.0699C95.8021 65.8367 97.096 62.823 97.096 59.5091C97.096 56.0615 95.7014 52.9413 93.445 50.6868C91.1886 48.4304 88.0703 47.0359 84.6228 47.0359C81.1791 47.0359 78.0589 48.4324 75.8024 50.6888C73.5441 52.9413 72.1496 56.0615 72.1496 59.5091C72.1496 62.8598 73.4666 65.9026 75.6107 68.1396ZM40.4049 84.0139L41.11 83.4696C42.7078 82.5244 45.1173 82.7723 46.6861 81.6761C46.781 81.5347 46.8817 81.3313 46.9785 81.1105C47.1257 80.7755 47.2575 80.4114 47.3427 80.1615C46.9863 79.7412 46.6803 79.2667 46.3878 78.7999L45.4213 77.2621C45.0688 76.7353 44.8848 76.253 44.8732 75.8579C44.8674 75.6719 44.8984 75.5034 44.9681 75.3543C45.0398 75.1974 45.1502 75.0696 45.2993 74.9689C45.371 74.9204 45.4485 74.8798 45.5337 74.8488C45.4717 74.014 45.4485 72.9662 45.4891 72.0849C45.5085 71.8777 45.5511 71.6685 45.6092 71.4593C45.8552 70.5781 46.473 69.8672 47.24 69.3792C47.6622 69.108 48.1251 68.9066 48.6094 68.771C48.9154 68.6839 48.3479 67.7019 48.6636 67.669C50.1995 67.5101 52.6825 68.9124 53.7536 70.0726C54.292 70.6536 54.6271 71.4225 54.7007 72.4413L54.6426 74.9495C54.9099 75.0308 55.0822 75.2013 55.152 75.4763C55.2275 75.7823 55.1442 76.2123 54.8866 76.7953C54.8828 76.8069 54.875 76.8185 54.8692 76.8282L53.7671 78.643C53.3643 79.3093 52.9517 79.9794 52.4172 80.5043C52.4656 80.574 52.514 80.6438 52.5605 80.7154C52.7794 81.035 53.0001 81.3565 53.281 81.6412C53.2907 81.6509 53.2984 81.6606 53.3042 81.6703C54.5729 82.5651 57.6602 82.784 58.8455 83.4444L58.892 83.4715L59.5854 84.0216C61.454 81.7828 62.4755 78.958 62.4712 76.0419C62.4712 72.5962 61.0748 69.476 58.8203 67.2196C56.5659 64.9651 53.4456 63.5687 50 63.5687C46.5544 63.5687 43.4361 64.9671 41.1816 67.2215C38.9252 69.476 37.5288 72.5962 37.5288 76.0419C37.5288 79.073 38.6095 81.8523 40.4049 84.0139ZM57.0559 10.7029H57.0597C59.8662 10.7029 62.142 12.9787 62.142 15.7852C62.142 18.5916 59.8662 20.8693 57.0597 20.8693C55.8688 20.87 54.7156 20.4518 53.802 19.6879L47.0521 22.5021C47.0735 22.6938 47.087 22.8856 47.0889 23.0793L54.1041 26.3118C54.9563 25.7095 55.9771 25.3802 57.0288 25.3802C59.8236 25.3802 62.0897 27.6482 62.0897 30.4411C62.0897 33.236 59.8236 35.5021 57.0288 35.5021C54.2358 35.5021 51.9717 33.2341 51.9717 30.4411C51.9717 30.0538 52.0162 29.6664 52.1034 29.2887L45.8687 26.4184C44.9081 27.5398 43.5 28.2002 42.0048 28.2002C39.1964 28.2002 36.9206 25.9225 36.9206 23.1161C36.9206 20.3096 39.1964 18.0338 42.0048 18.0338C43.2656 18.0338 44.482 18.5045 45.4117 19.347L52.0395 16.5831C51.9969 16.3197 51.9756 16.0544 51.9756 15.7852C51.9756 12.9787 54.2513 10.7029 57.0559 10.7029Z" fill="#7A1AAE"/>
</svg>
